<svg width="130" height="38" viewBox="0 0 130 38" fill="none" xmlns="http://www.w3.org/2000/svg">
<path d="M3 16.517C1.6287 16.517 0.517048 17.6287 0.517048 19C0.517048 20.3713 1.6287 21.483 3 21.483L3 16.517ZM128.756 20.7557C129.725 19.786 129.725 18.2139 128.756 17.2443L112.954 1.44287C111.985 0.473219 110.413 0.473219 109.443 1.44287C108.473 2.41252 108.473 3.98464 109.443 4.9543L123.489 19L109.443 33.0457C108.473 34.0153 108.473 35.5875 109.443 36.5571C110.413 37.5268 111.985 37.5268 112.954 36.5571L128.756 20.7557ZM3 19L3 21.483L127 21.4829L127 19L127 16.517L3 16.517L3 19Z" fill="#A8A9AF"/>
</svg>
