<svg width="30" height="30" viewBox="0 0 30 30" fill="none" xmlns="http://www.w3.org/2000/svg">
<path d="M27.2569 0.47172C27.8845 -0.155911 28.9017 -0.155911 29.5293 0.47172C30.1568 1.09936 30.1569 2.11659 29.5293 2.74418L17.2725 15L29.5293 27.2569C30.157 27.8845 30.157 28.9017 29.5293 29.5293C28.9017 30.157 27.8845 30.157 27.2569 29.5293L15 17.2725L2.74418 29.5303L2.62211 29.6407C1.99091 30.1554 1.05912 30.1186 0.470744 29.5303C-0.117619 28.942 -0.154348 28.0102 0.360392 27.3789L0.470744 27.2569L12.7266 15L0.470744 2.74418L0.360392 2.62211C-0.154473 1.99086 -0.117665 1.05915 0.470744 0.470744C1.05915 -0.117665 1.99086 -0.154473 2.62211 0.360392L2.74418 0.470744L15 12.7276L27.2569 0.47172Z" fill="#FFFFFF"/>
</svg>
