<svg width="19" height="19" viewBox="0 0 19 19" fill="none" xmlns="http://www.w3.org/2000/svg">
<path d="M14.0279 1.76204L17.4046 5.14024L17.9671 4.57676C18.1889 4.355 18.3648 4.09174 18.4847 3.802C18.6047 3.51226 18.6665 3.20172 18.6665 2.88811C18.6665 2.5745 18.6047 2.26396 18.4847 1.97422C18.3648 1.68448 18.1889 1.42122 17.9671 1.19946C17.7454 0.977704 17.4822 0.801798 17.1925 0.681784C16.9028 0.56177 16.5923 0.5 16.2788 0.5C15.6455 0.5 15.0381 0.751604 14.5904 1.19946L14.0279 1.76204ZM15.854 6.68757L12.4772 3.30937L1.7627 14.0263L0.666504 18.5L5.13949 17.4045L15.854 6.68757Z" fill="#A8A9AF"/>
</svg>
