<svg width="20" height="25" viewBox="0 0 20 25" fill="none" xmlns="http://www.w3.org/2000/svg">
<path d="M18.1651 7.59227H1.83486C1.59021 7.59227 1.37615 7.68204 1.19266 7.8616C1.00917 8.04115 0.917431 8.25062 0.917431 8.49002L2.07951 23.6022C2.0999 23.8616 2.22222 24.0761 2.44648 24.2456C2.67074 24.4152 2.97655 24.5 3.36391 24.5H16.6361C17.0031 24.5 17.2987 24.4152 17.5229 24.2456C17.7472 24.0761 17.8797 23.8616 17.9205 23.6022L19.0826 8.49002C19.0826 8.25062 18.9908 8.04115 18.8073 7.8616C18.6239 7.68204 18.4098 7.59227 18.1651 7.59227ZM5.22936 22.7045C5.02548 22.7045 4.842 22.6147 4.6789 22.4352C4.5158 22.2556 4.43425 22.0461 4.43425 21.8067L3.63914 10.2556C3.63914 10.0162 3.73089 9.81172 3.91437 9.64214C4.09786 9.47257 4.31193 9.38778 4.55657 9.38778C4.80122 9.38778 5.01529 9.47257 5.19878 9.64214C5.38226 9.81172 5.47401 10.0162 5.47401 10.2556L6.02447 21.8067C6.02447 22.0461 5.94801 22.2556 5.79511 22.4352C5.6422 22.6147 5.45362 22.7045 5.22936 22.7045ZM10.7951 21.7768C10.7951 22.0362 10.7187 22.2556 10.5657 22.4352C10.4128 22.6147 10.2243 22.7045 10 22.7045C9.77574 22.7045 9.58716 22.6147 9.43425 22.4352C9.28135 22.2556 9.20489 22.0362 9.20489 21.7768L9.08257 10.2556C9.08257 10.0162 9.17431 9.81172 9.3578 9.64214C9.54128 9.47257 9.75535 9.38778 10 9.38778C10.2446 9.38778 10.4587 9.47257 10.6422 9.64214C10.8257 9.81172 10.9174 10.0162 10.9174 10.2556L10.7951 21.7768ZM15.5657 21.8067C15.5657 22.0461 15.4842 22.2556 15.3211 22.4352C15.158 22.6147 14.9745 22.7045 14.7706 22.7045C14.5464 22.7045 14.3578 22.6147 14.2049 22.4352C14.052 22.2556 13.9755 22.0461 13.9755 21.8067L14.526 10.2556C14.526 10.0162 14.6177 9.81172 14.8012 9.64214C14.9847 9.47257 15.1988 9.38778 15.4434 9.38778C15.6881 9.38778 15.9021 9.47257 16.0856 9.64214C16.2691 9.81172 16.3609 10.0162 16.3609 10.2556L15.5657 21.8067ZM18.6544 3.70199L13.1804 2.80424C12.9358 2.76434 12.7829 2.61471 12.7217 2.35536L12.4771 1.36783C12.3955 0.968828 12.2528 0.709476 12.0489 0.589776C11.9266 0.529925 11.7023 0.5 11.3761 0.5H8.62385C8.29766 0.5 8.0632 0.529925 7.92049 0.589776C7.71662 0.709476 7.5841 0.968828 7.52294 1.36783L7.27829 2.35536C7.23751 2.61471 7.08461 2.76434 6.81957 2.80424L1.34557 3.70199C0.958206 3.76185 0.637105 3.90648 0.382263 4.13591C0.127421 4.36534 0 4.64963 0 4.98878V5.82668C0 6.00623 0.0662589 6.15586 0.198777 6.27556C0.331295 6.39526 0.489297 6.45511 0.672783 6.45511H19.3272C19.5107 6.45511 19.6687 6.39526 19.8012 6.27556C19.9337 6.15586 20 6.00623 20 5.82668V4.98878C20 4.64963 19.8726 4.36534 19.6177 4.13591C19.3629 3.90648 19.0418 3.76185 18.6544 3.70199Z" fill="#A8A9AF"/>
</svg>
